{"title":"Fast.&amp;.Furious.2009.DVDRIP.XviD-ZEKTORM","uid":5002219,"size":744553308,"categoryP":"video","categoryS":"movies","magnet":"?xt=urn:btih:a6aa8b2254c8a9f1a4f6577cfc23ac329eefaf69&amp;dn=Fast.%26.Furious.2009.DVDRIP.XviD-ZEKTORM&amp;tr=udp%3A%2F%2Ftracker.openbittorrent.com%3A80&amp;tr=udp%3A%2F%2Fopen.demonii.com%3A1337&amp;tr=udp%3A%2F%2Ftracker.coppersurfer.tk%3A6969&amp;tr=udp%3A%2F%2Fexodus.desync.com%3A6969","seeders":0,"leechers":1,"uploader":"blowley","files":5,"time":1247532752,"description":"Title                            : Fast &amp; Furious\nYear                             : 2009\nGenre                            : Action | Crime | Drama | Thriller\niMDB URL                         : http://www.imdb.com/title/tt1013752/\nAwards                           : 4 nominations\n\nComplete name                    : FF-ZEKTORM\nFormat                           : AVI\nFile size                        : 701 MiB\nDuration                         : 1h 46mn\nOverall bit rate                 : 918 Kbps\nSubtitles                        : English, Spanish, French (Format: VobSub)\nSource                           : DVD NTSC\n\nVideo\nFormat                           : MPEG-4 Visual\nFormat profile                   : Streaming Video@L1\nCodec ID                         : XVID\nCodec ID/Hint                    : XviD\nDuration                         : 1h 46mn\nBit rate                         : 795 Kbps\nWidth                            : 720 pixels\nHeight                           : 304 pixels\nDisplay aspect ratio             : 2.35\nFrame rate                       : 23.976 fps\nResolution                       : 24 bits\nColorimetry                      : 4:2:0\nScan type                        : Progressive\nBits/(Pixel*Frame)               : 0.151\nStream size                      : 607 MiB (87%)\nWriting library                  : XviD\n\nAudio\nFormat                           : MPEG Audio\nFormat version                   : Version 1\nFormat profile                   : Layer 3\nCodec ID                         : 55\nCodec ID/Hint                    : MP3\nDuration                         : 1h 46mn\nBit rate mode                    : Variable\nBit rate                         : 110 Kbps\nMinimum bit rate                 : 128 Kbps\nChannel(s)                       : 2 channels\nSampling rate                    : 48.0 KHz\nResolution                       : 16 bits\nStream size                      : 84.0 MiB (12%)\nWriting library                  : LAME3.98r\nEncoding settings                : ABR\n","torrent":{"xt":"urn:btih:a6aa8b2254c8a9f1a4f6577cfc23ac329eefaf69","amp;dn":"Fast.%26.Furious.2009.DVDRIP.XviD-ZEKTORM","amp;tr":["udp%3A%2F%2Ftracker.openbittorrent.com%3A80","udp%3A%2F%2Fopen.demonii.com%3A1337","udp%3A%2F%2Ftracker.coppersurfer.tk%3A6969","udp%3A%2F%2Fexodus.desync.com%3A6969"],"infoHash":"a6aa8b2254c8a9f1a4f6577cfc23ac329eefaf69","infoHashBuffer":{"type":"Buffer","data":[166,170,139,34,84,200,169,241,164,246,87,124,252,35,172,50,158,239,175,105]},"announce":[],"urlList":[]}}